<?xml version="1.0" standalone="no"?><!DOCTYPE svg PUBLIC "-//W3C//DTD SVG 1.1//EN" "http://www.w3.org/Graphics/SVG/1.1/DTD/svg11.dtd"><svg t="1547888764985" class="icon" style="" viewBox="0 0 1313 1024" version="1.1" xmlns="http://www.w3.org/2000/svg" p-id="4904" xmlns:xlink="http://www.w3.org/1999/xlink" width="256.4453125" height="200"><defs><style type="text/css"></style></defs><path d="M0 956.264924a656.802424 67.735076 0 1 0 1313.604847 0 656.802424 67.735076 0 1 0-1313.604847 0Z" fill="#EEF2F5" p-id="4905"></path><path d="M899.096858 113.918466h45.111606a40.916226 40.916226 0 0 1 40.916226 40.916226 40.916226 40.916226 0 0 1-40.916226 40.916227h-45.111606V113.918466z" fill="" p-id="4906"></path><path d="M899.096858 154.812136m-40.916226 0a40.916226 40.916226 0 1 0 81.832453 0 40.916226 40.916226 0 1 0-81.832453 0Z" fill="" p-id="4907"></path><path d="M227.227158 58.927418h631.291811a95.884718 95.884718 0 0 1 95.884718 95.884718 95.884718 95.884718 0 0 1-95.884718 95.884718H227.227158v-191.724324-0.045112z" fill="#FFE400" p-id="4908"></path><path d="M307.706263 154.812136c0 52.961025-14.61616 95.907274-67.667409 95.907274h264.579568V154.812136z" fill="#9E6101" p-id="4909"></path><path d="M240.129077 58.927418A95.907274 95.907274 0 1 0 270.669634 245.689466L215.678587 190.788642l57.855634-57.855634 53.908369 66.74262 2.255581-10.646339a95.681716 95.681716 0 0 0-89.569094-130.101871z" fill="#FFB321" p-id="4910"></path><path d="M315.285013 174.706355l-41.750792-41.773347-57.855634 57.855634L270.669634 245.689466a95.974941 95.974941 0 0 0 48.179195-36.089284 27.337633 27.337633 0 0 0-3.563816-34.893827z" fill="#FFB321" p-id="4911"></path><path d="M323.111876 147.887505h12.901919v704.16961h-12.901919z" fill="#FFB321" p-id="4912"></path><path d="M954.403687 852.057115H336.036351V147.887505l618.367336 4.060044v700.109566z" fill="#FFE400" p-id="4913"></path><path d="M404.718771 493.013845m18.856651 0l443.31175 0q18.856651 0 18.856651 18.856651l0 0q0 18.856651-18.856651 18.856651l-443.31175 0q-18.856651 0-18.856651-18.856651l0 0q0-18.856651 18.856651-18.856651Z" fill="#FFB321" p-id="4914"></path><path d="M404.718771 578.410114m18.856651 0l268.143385 0q18.856651 0 18.856651 18.856652l0 0q0 18.856651-18.856651 18.856651l-268.143385 0q-18.856651 0-18.856651-18.856651l0 0q0-18.856651 18.856651-18.856652Z" fill="#FFB321" p-id="4915"></path><path d="M760.130557 578.410114m18.856651 0l87.877408 0q18.856651 0 18.856651 18.856652l0 0q0 18.856651-18.856651 18.856651l-87.877408 0q-18.856651 0-18.856651-18.856651l0 0q0-18.856651 18.856651-18.856652Z" fill="#FFB321" p-id="4916"></path><path d="M404.718771 663.82894m18.856651 0l109.350532 0q18.856651 0 18.856652 18.856651l0 0q0 18.856651-18.856652 18.856651l-109.350532 0q-18.856651 0-18.856651-18.856651l0 0q0-18.856651 18.856651-18.856651Z" fill="#FFB321" p-id="4917"></path><path d="M592.65372 663.82894m18.856652 0l255.3768 0q18.856651 0 18.856651 18.856651l0 0q0 18.856651-18.856651 18.856651l-255.3768 0q-18.856651 0-18.856652-18.856651l0 0q0-18.856651 18.856652-18.856651Z" fill="#FFB321" p-id="4918"></path><path d="M762.025244 263.959667l-28.172198 18.044642c-1.714241-2.413471-3.202924-4.736719-4.917165-6.902076a22.916696 22.916696 0 0 0-24.811383-7.623861c-13.533482 3.947266-13.533482 19.826551-6.766741 26.051952a36.089285 36.089285 0 0 0 8.368203 5.90962c6.766741 3.315703 13.533482 6.225402 20.435558 9.270435a125.16215 125.16215 0 0 1 28.172197 16.149955 47.367186 47.367186 0 0 1 18.247645 37.014073 51.26934 51.26934 0 0 1-6.022399 28.036863A46.194284 46.194284 0 0 1 739.830334 411.249059c-23.615926 7.646417-46.690512 6.360736-68.637308-5.841953a61.487119 61.487119 0 0 1-24.202377-25.104608c-0.27067-0.473672-0.473672-0.992455-0.812008-1.714241l29.548101-17.097299 1.285681 1.894688a44.051483 44.051483 0 0 0 15.337946 15.360501 38.164418 38.164418 0 0 0 31.127008 2.819476c6.090067-1.962355 10.781674-5.75173 12.247801-12.338024a15.405613 15.405613 0 0 0-4.285603-15.405614 36.089285 36.089285 0 0 0-8.526093-5.999843c-7.984754-3.902154-16.149955-7.398303-24.270044-11.007232a94.734372 94.734372 0 0 1-25.668504-15.631172 47.77319 47.77319 0 0 1-15.789062-33.833704 49.239318 49.239318 0 0 1 5.638951-27.540635 44.592822 44.592822 0 0 1 24.247488-20.706227 66.787732 66.787732 0 0 1 49.239318 0.586451c11.638794 4.533716 19.533325 13.398147 25.713615 24.270044zM517.791011 382.445299l29.50299-17.84164 1.646573 2.729252a43.081583 43.081583 0 0 0 8.390759 11.120011 23.390368 23.390368 0 0 0 24.585825 2.436027c4.826942-2.729252 6.766741-7.30808 7.511083-12.450804a63.90059 63.90059 0 0 0 0.676674-9.518548V237.050594h36.314842v122.681012a68.231304 68.231304 0 0 1-5.458504 29.322543c-6.338181 13.533482-17.232633 21.608459-31.578124 24.811383a69.020757 69.020757 0 0 1-44.344708-3.518705 54.539931 54.539931 0 0 1-27.066964-27.066963 8.548649 8.548649 0 0 1-0.180446-0.834565z" fill="#FFB321" p-id="4919"></path><path d="M1081.618415 811.163444h45.111606a40.916226 40.916226 0 0 1 40.916226 40.916227 40.916226 40.916226 0 0 1-40.916226 40.916226h-45.111606V811.163444z" fill="" p-id="4920"></path><path d="M1081.618415 852.057115m-40.916226 0a40.916226 40.916226 0 1 0 81.832452 0 40.916226 40.916226 0 1 0-81.832452 0Z" fill="" p-id="4921"></path><path d="M419.01915 756.172397h631.291811a95.884718 95.884718 0 0 1 95.884718 95.884718 95.884718 95.884718 0 0 1-95.884718 95.884718H419.01915v-191.724325-0.045111z" fill="#9E6101" p-id="4922"></path><path d="M419.01915 852.057115m-95.884718 0a95.884718 95.884718 0 1 0 191.769436 0 95.884718 95.884718 0 1 0-191.769436 0Z" fill="#FFB321" p-id="4923"></path><path d="M508.92658 886.093821l-56.118837-56.118837-57.833079 57.855634 54.900824 54.92338a96.110276 96.110276 0 0 0 59.051092-56.660177z" fill="" p-id="4924"></path><path d="M383.696763 815.200933h40.600445a36.878738 36.878738 0 0 1 36.878737 36.878738 36.878738 36.878738 0 0 1-36.878737 36.878737h-40.600445v-73.757475z" fill="" p-id="4925"></path><path d="M383.696763 852.057115m-36.878738 0a36.878738 36.878738 0 1 0 73.757475 0 36.878738 36.878738 0 1 0-73.757475 0Z" fill="#383838" p-id="4926"></path><path d="M959.952414 608.770225l12.63125 33.4277a6.044955 6.044955 0 0 0 3.451038 3.451038l33.4277 12.631249a5.932176 5.932176 0 0 1 0 11.074899l-33.4277 12.653806a5.954732 5.954732 0 0 0-3.451038 3.428482l-12.63125 33.4277a5.932176 5.932176 0 0 1-11.074899 0l-12.653805-33.4277a5.841953 5.841953 0 0 0-3.428482-3.428482l-33.4277-12.653806a5.932176 5.932176 0 0 1 0-11.074899l33.4277-12.631249a5.954732 5.954732 0 0 0 3.428482-3.451038l12.653805-33.4277a5.932176 5.932176 0 0 1 11.074899 0zM483.415967 3.891259l12.653805 33.405144a5.887065 5.887065 0 0 0 3.428483 3.360815l33.427699 12.63125a5.932176 5.932176 0 0 1 0 11.097455l-33.427699 12.631249a5.887065 5.887065 0 0 0-3.428483 3.451038l-12.653805 33.495367a5.90962 5.90962 0 0 1-11.074899 0l-12.63125-33.405144a5.90962 5.90962 0 0 0-3.451038-3.451037l-33.427699-12.63125a5.932176 5.932176 0 0 1 0-11.097455L456.25878 40.657218a5.90962 5.90962 0 0 0 3.451038-3.451038l12.63125-33.405144a5.90962 5.90962 0 0 1 11.074899 0.090223zM1087.189698 254.553897l12.63125 33.405144a5.977288 5.977288 0 0 0 3.451038 3.451038l33.4277 12.631249a5.932176 5.932176 0 0 1 0 11.097455l-33.4277 12.63125a5.977288 5.977288 0 0 0-3.451038 3.451038l-12.63125 33.405144a5.90962 5.90962 0 0 1-11.074899 0l-12.653805-33.405144a5.887065 5.887065 0 0 0-3.428482-3.451038l-33.4277-12.63125a5.932176 5.932176 0 0 1 0-11.097455l33.4277-12.631249a5.887065 5.887065 0 0 0 3.428482-3.451038l12.653805-33.405144a5.90962 5.90962 0 0 1 11.074899 0zM278.203273 456.834337l12.631249 33.405144a5.90962 5.90962 0 0 0 3.451038 3.451038l33.405144 12.631249a5.932176 5.932176 0 0 1 0 11.097455L294.28556 530.11814a5.90962 5.90962 0 0 0-3.451038 3.451038l-12.631249 33.405144a5.90962 5.90962 0 0 1-11.0749 0l-12.653805-33.405144a5.864509 5.864509 0 0 0-3.451038-3.451038l-33.405144-12.631249a5.932176 5.932176 0 0 1 0-11.097455l33.405144-12.63125a5.864509 5.864509 0 0 0 3.451038-3.451038l12.653805-33.405144a5.90962 5.90962 0 0 1 11.0749-0.067667z" fill="#FF4585" p-id="4927"></path><path d="M315.194789 174.593576l-41.660568-41.660568-57.855634 57.855634L270.669634 245.689466a95.952385 95.952385 0 0 0 43.036472-29.322544l3.270592-3.947265a28.014307 28.014307 0 0 0-1.781909-37.826081z" fill="" p-id="4928"></path><path d="M206.678822 121.993443h40.600445A36.878738 36.878738 0 0 1 284.203116 158.849625a36.878738 36.878738 0 0 1-36.878738 36.878738h-40.600445V121.993443h-0.045111z" fill="" p-id="4929"></path><path d="M206.678822 158.849625m-36.878738 0a36.878738 36.878738 0 1 0 73.757475 0 36.878738 36.878738 0 1 0-73.757475 0Z" fill="#383838" p-id="4930"></path></svg>